<svg width="182" height="60" viewBox="0 0 182 60" fill="none" xmlns="http://www.w3.org/2000/svg">
<path d="M11.6859 59.8733L59.4805 11.8779L48.0421 0.39151L0.247555 48.3868L11.6859 59.8733Z" fill="url(#paint0_radial_585_2004)"/>
<path d="M47.6536 60L59.6749 47.9282C59.4471 47.7152 59.2194 47.5062 58.9994 47.2814C49.2991 37.5404 49.2088 22.1874 58.9091 12.4464C59.0112 12.3438 59.3764 11.9731 59.4825 11.8706L48.0424 0.390381C47.3552 0.989829 46.6797 1.609 46.0278 2.26366C30.5741 17.7823 30.5741 42.9433 46.0278 58.4658C46.5579 58.9982 47.1038 59.507 47.6536 60.0039V60Z" fill="url(#paint1_radial_585_2004)"/>
<path d="M12.0213 0L0 12.0718C0.22778 12.2847 0.45556 12.4938 0.675485 12.7185C10.3758 22.4596 10.7096 36.4125 0.675485 47.9992C0.581231 48.1096 0.349524 48.2871 0.247416 48.3896L11.6403 59.8304C12.3276 59.231 12.9913 58.3988 13.6472 57.7402C29.1008 42.2216 29.1008 17.0606 13.6472 1.53806C13.117 1.00565 12.5711 0.496911 12.0213 0Z" fill="url(#paint2_radial_585_2004)"/>
<path d="M77.4886 26.9161C75.9923 26.1116 74.8181 24.9916 73.9658 23.56C73.1136 22.1284 72.6816 20.5115 72.6816 18.7092C72.6816 16.9069 73.1097 15.286 73.9658 13.8544C74.822 12.4229 75.9962 11.3028 77.4886 10.4983C78.9809 9.68986 80.6618 9.2876 82.5272 9.2876C84.0981 9.2876 85.5198 9.56366 86.7883 10.1197C88.0568 10.6758 89.125 11.4724 89.989 12.5136L87.2949 15.01C86.0696 13.5863 84.5498 12.8764 82.7354 12.8764C81.6122 12.8764 80.6107 13.1249 79.731 13.6178C78.8513 14.1108 78.1641 14.8009 77.6692 15.6883C77.1744 16.5756 76.9309 17.5773 76.9309 18.7052C76.9309 19.8331 77.1783 20.8388 77.6692 21.7222C78.1601 22.6056 78.8474 23.2957 79.731 23.7927C80.6107 24.2856 81.6122 24.5341 82.7354 24.5341C84.5498 24.5341 86.0696 23.8163 87.2949 22.3729L89.989 24.8693C89.125 25.9262 88.0529 26.7347 86.7765 27.2908C85.4962 27.8468 84.0746 28.1229 82.4997 28.1229C80.65 28.1229 78.9809 27.7206 77.4847 26.9122L77.4886 26.9161Z" fill="#261B97"/>
<path d="M94.9256 25.9656C93.4843 24.5262 92.7617 22.4715 92.7617 19.7976V9.59912H96.9599V19.6438C96.9599 22.9053 98.307 24.534 101.001 24.534C102.313 24.534 103.314 24.1397 104.005 23.3509C104.697 22.5622 105.042 21.3278 105.042 19.6438V9.59912H109.189V19.7976C109.189 22.4675 108.467 24.5262 107.025 25.9656C105.584 27.4051 103.566 28.1268 100.974 28.1268C98.3816 28.1268 96.3669 27.4051 94.9217 25.9656H94.9256Z" fill="#261B97"/>
<path d="M125.15 27.8152L121.65 22.7396H117.79V27.8152H113.592V9.59912H121.442C123.049 9.59912 124.443 9.86729 125.629 10.4036C126.811 10.94 127.722 11.7051 128.362 12.695C129.002 13.6848 129.32 14.8561 129.32 16.2088C129.32 17.5615 128.998 18.7289 128.35 19.7069C127.702 20.6889 126.783 21.4382 125.59 21.9588L129.658 27.8113H125.15V27.8152ZM124.085 13.8544C123.43 13.3102 122.471 13.0341 121.211 13.0341H117.79V19.3835H121.211C122.471 19.3835 123.43 19.1075 124.085 18.5514C124.741 17.9953 125.071 17.2145 125.071 16.2088C125.071 15.2032 124.741 14.3986 124.085 13.8544Z" fill="#261B97"/>
<path d="M132.898 9.59912H137.097V27.8113H132.898V9.59912Z" fill="#261B97"/>
<path d="M143.455 27.5431C142.116 27.1527 141.039 26.6439 140.23 26.0208L141.656 22.8461C142.434 23.418 143.357 23.8794 144.429 24.2264C145.501 24.5735 146.569 24.747 147.641 24.747C148.831 24.747 149.715 24.5695 150.284 24.2146C150.854 23.8597 151.14 23.3864 151.14 22.7949C151.14 22.361 150.971 22.0022 150.634 21.7143C150.296 21.4264 149.864 21.1976 149.338 21.0241C148.811 20.8506 148.097 20.6613 147.201 20.4523C145.819 20.1249 144.688 19.7937 143.808 19.4624C142.928 19.1351 142.171 18.6027 141.542 17.877C140.91 17.1474 140.596 16.1773 140.596 14.9626C140.596 13.9057 140.882 12.9473 141.452 12.0876C142.021 11.2279 142.881 10.5496 144.028 10.0448C145.175 9.53996 146.581 9.2915 148.238 9.2915C149.397 9.2915 150.528 9.42954 151.631 9.70954C152.735 9.9856 153.705 10.3879 154.533 10.9084L153.237 14.1107C151.561 13.1564 149.888 12.6792 148.211 12.6792C147.036 12.6792 146.168 12.8685 145.607 13.251C145.045 13.6336 144.766 14.1344 144.766 14.7615C144.766 15.3885 145.088 15.8499 145.736 16.1536C146.384 16.4573 147.374 16.757 148.702 17.0528C150.084 17.3841 151.215 17.7114 152.095 18.0427C152.974 18.3739 153.732 18.8945 154.361 19.6044C154.989 20.3142 155.307 21.2805 155.307 22.4912C155.307 23.5323 155.017 24.4828 154.439 25.3386C153.862 26.1983 152.994 26.8766 151.835 27.3814C150.677 27.8862 149.271 28.1347 147.614 28.1347C146.18 28.1347 144.794 27.9375 143.455 27.551V27.5431Z" fill="#261B97"/>
<path d="M73.8203 34.0503H82.0597C84.0272 34.0503 85.7709 34.4289 87.279 35.1821C88.7909 35.9354 89.9652 37.0002 90.8017 38.3687C91.6382 39.7411 92.0584 41.3344 92.0584 43.1564C92.0584 44.9784 91.6382 46.5756 90.8017 47.9441C89.9652 49.3126 88.7909 50.3774 87.279 51.1306C85.767 51.8839 84.0272 52.2625 82.0597 52.2625H73.8203V34.0503ZM81.8515 48.8038C83.6659 48.8038 85.1111 48.2951 86.1911 47.2815C87.2711 46.268 87.8091 44.8916 87.8091 43.1564C87.8091 41.4211 87.2672 40.0487 86.1911 39.0312C85.1111 38.0177 83.6659 37.509 81.8515 37.509H78.0185V48.7999H81.8515V48.8038Z" fill="#261B97"/>
<path d="M95.4824 34.0503H99.6806V52.2625H95.4824V34.0503Z" fill="#261B97"/>
<path d="M116.493 42.8725H120.326V50.263C119.341 51.0084 118.202 51.5802 116.906 51.9785C115.61 52.3769 114.306 52.578 112.994 52.578C111.113 52.578 109.421 52.1757 107.916 51.3673C106.412 50.5627 105.234 49.4427 104.378 48.0111C103.522 46.5796 103.094 44.9626 103.094 43.1604C103.094 41.3581 103.522 39.7372 104.378 38.3056C105.234 36.874 106.42 35.754 107.94 34.9495C109.46 34.141 111.168 33.7388 113.069 33.7388C114.659 33.7388 116.101 34.0069 117.397 34.5472C118.693 35.0836 119.781 35.8644 120.66 36.8898L117.966 39.3862C116.67 38.0177 115.107 37.3315 113.277 37.3315C112.119 37.3315 111.094 37.576 110.194 38.0611C109.295 38.5462 108.596 39.2324 108.097 40.1158C107.594 40.9992 107.347 42.0167 107.347 43.1604C107.347 44.304 107.598 45.2939 108.097 46.1773C108.6 47.0607 109.295 47.7509 110.182 48.2478C111.07 48.7407 112.087 48.9892 113.226 48.9892C114.436 48.9892 115.523 48.7289 116.49 48.2083V42.8725H116.493Z" fill="#261B97"/>
<path d="M124.479 34.0503H128.677V52.2625H124.479V34.0503Z" fill="#261B97"/>
<path d="M136.99 37.4853H131.186V34.0503H146.993V37.4853H141.188V52.2664H136.99V37.4853Z" fill="#261B97"/>
<path d="M160.545 48.3621H152.125L150.519 52.2664H146.219L154.301 34.0542H158.448L166.558 52.2664H162.152L160.545 48.3621ZM159.226 45.1598L156.351 38.1872L153.476 45.1598H159.23H159.226Z" fill="#261B97"/>
<path d="M168.707 34.0503H172.905V48.8314H182.001V52.2664H168.707V34.0542V34.0503Z" fill="#261B97"/>
<defs>
<radialGradient id="paint0_radial_585_2004" cx="0" cy="0" r="1" gradientTransform="matrix(-27.7198 27.8362 -27.7198 -27.8362 24.6211 56.46)" gradientUnits="userSpaceOnUse">
<stop offset="0.2"/>
<stop offset="0.27" stop-color="#000F23"/>
<stop offset="0.38" stop-color="#002A5C"/>
<stop offset="0.49" stop-color="#00408E"/>
<stop offset="0.6" stop-color="#0053B6"/>
<stop offset="0.71" stop-color="#0061D6"/>
<stop offset="0.81" stop-color="#006BEC"/>
<stop offset="0.91" stop-color="#0071FA"/>
<stop offset="1" stop-color="#0074FF"/>
</radialGradient>
<radialGradient id="paint1_radial_585_2004" cx="0" cy="0" r="1" gradientUnits="userSpaceOnUse" gradientTransform="translate(13.1725 3.9358) scale(74.0599 74.371)">
<stop offset="0.2" stop-color="#0089FF"/>
<stop offset="0.22" stop-color="#2379FE"/>
<stop offset="0.26" stop-color="#5C5EFC"/>
<stop offset="0.29" stop-color="#8E48FB"/>
<stop offset="0.32" stop-color="#B635FA"/>
<stop offset="0.35" stop-color="#D627F9"/>
<stop offset="0.38" stop-color="#EC1DF9"/>
<stop offset="0.41" stop-color="#FA17F9"/>
<stop offset="0.44" stop-color="#FF15F9"/>
<stop offset="0.46" stop-color="#F319F9"/>
<stop offset="0.61" stop-color="#9E39FB"/>
<stop offset="0.75" stop-color="#5A52FC"/>
<stop offset="0.86" stop-color="#2964FE"/>
<stop offset="0.95" stop-color="#0B6FFE"/>
<stop offset="1" stop-color="#0074FF"/>
</radialGradient>
<radialGradient id="paint2_radial_585_2004" cx="0" cy="0" r="1" gradientUnits="userSpaceOnUse" gradientTransform="translate(64.2378 38.6841) scale(74.9278 75.2425)">
<stop offset="0.2" stop-color="#0089FF"/>
<stop offset="0.22" stop-color="#2379FE"/>
<stop offset="0.26" stop-color="#5C5EFC"/>
<stop offset="0.29" stop-color="#8E48FB"/>
<stop offset="0.32" stop-color="#B635FA"/>
<stop offset="0.35" stop-color="#D627F9"/>
<stop offset="0.38" stop-color="#EC1DF9"/>
<stop offset="0.41" stop-color="#FA17F9"/>
<stop offset="0.44" stop-color="#FF15F9"/>
<stop offset="0.46" stop-color="#F319F9"/>
<stop offset="0.61" stop-color="#9E39FB"/>
<stop offset="0.75" stop-color="#5A52FC"/>
<stop offset="0.86" stop-color="#2964FE"/>
<stop offset="0.95" stop-color="#0B6FFE"/>
<stop offset="1" stop-color="#0074FF"/>
</radialGradient>
</defs>
</svg>
