<svg width="17" height="17" viewBox="0 0 17 17" fill="none" xmlns="http://www.w3.org/2000/svg">
<path d="M16.1743 11.4156L12.1818 9.71304C11.9758 9.62071 11.7497 9.58242 11.5248 9.60178C11.2998 9.62115 11.0836 9.69753 10.8964 9.82371L8.75967 11.2453C7.45742 10.6129 6.40306 9.56449 5.76316 8.26587L7.17629 6.10362C7.30163 5.91623 7.37819 5.7005 7.399 5.47602C7.41981 5.25154 7.38422 5.02542 7.29547 4.81818L5.5844 0.825682C5.465 0.556093 5.26283 0.331546 5.00721 0.184603C4.75159 0.0376595 4.45581 -0.0240395 4.16276 0.00845302C3.01318 0.159048 1.95741 0.721972 1.19173 1.59256C0.426043 2.46316 0.00255584 3.58218 0 4.74157C0 11.5007 5.49927 17 12.2584 17C13.4178 16.9974 14.5368 16.574 15.4074 15.8083C16.278 15.0426 16.841 13.9868 16.9915 12.8372C17.024 12.5442 16.9623 12.2484 16.8154 11.9928C16.6685 11.7372 16.4439 11.535 16.1743 11.4156Z" fill="#261B97"/>
<path d="M10.6745 1.992C11.7111 2.27521 12.656 2.82382 13.4158 3.58368C14.1757 4.34354 14.7243 5.2884 15.0075 6.32502C15.0451 6.47056 15.1297 6.59958 15.2483 6.69197C15.3669 6.78436 15.5127 6.83492 15.663 6.83579C15.7235 6.83567 15.7837 6.82708 15.8418 6.81025C15.9283 6.7876 16.0095 6.7479 16.0805 6.69347C16.1516 6.63905 16.211 6.57099 16.2554 6.4933C16.2998 6.4156 16.3283 6.32983 16.3391 6.241C16.3499 6.15217 16.3429 6.06208 16.3185 5.97599C15.978 4.70647 15.3095 3.54887 14.3801 2.61946C13.4506 1.69004 12.293 1.02152 11.0235 0.681033C10.9347 0.64867 10.8401 0.635158 10.7457 0.641359C10.6514 0.647559 10.5594 0.673335 10.4755 0.717046C10.3917 0.760757 10.3179 0.821445 10.2588 0.895246C10.1997 0.969047 10.1566 1.05434 10.1323 1.14571C10.108 1.23707 10.1029 1.3325 10.1175 1.42591C10.1321 1.51933 10.166 1.60869 10.217 1.68829C10.268 1.7679 10.335 1.83602 10.4138 1.88831C10.4925 1.9406 10.5813 1.97591 10.6745 1.992Z" fill="#261B97"/>
<path d="M9.96941 4.62238C10.5456 4.78011 11.0708 5.08522 11.4933 5.50765C11.9157 5.93009 12.2208 6.45528 12.3785 7.0315C12.4148 7.17776 12.4991 7.30762 12.6179 7.40024C12.7368 7.49286 12.8833 7.54287 13.034 7.54227C13.0918 7.54283 13.1492 7.53421 13.2043 7.51673C13.2916 7.49501 13.3737 7.45598 13.4457 7.40196C13.5177 7.34793 13.5781 7.28001 13.6233 7.20221C13.6686 7.12442 13.6977 7.03833 13.7091 6.94905C13.7205 6.85978 13.7138 6.76913 13.6895 6.68247C13.4745 5.87334 13.0495 5.1354 12.4575 4.5434C11.8655 3.95141 11.1276 3.52639 10.3184 3.3114C10.2296 3.27904 10.135 3.26553 10.0407 3.27173C9.94632 3.27793 9.8543 3.30371 9.77047 3.34742C9.68663 3.39113 9.61282 3.45182 9.55372 3.52562C9.49463 3.59942 9.45155 3.68472 9.42722 3.77608C9.4029 3.86744 9.39786 3.96287 9.41244 4.05628C9.42702 4.1497 9.46088 4.23906 9.51189 4.31867C9.56289 4.39827 9.62991 4.46639 9.70868 4.51868C9.78745 4.57097 9.87625 4.60628 9.96941 4.62238Z" fill="#261B97"/>
</svg>
